<svg xmlns="http://www.w3.org/2000/svg" xmlns:xlink="http://www.w3.org/1999/xlink">
    <symbol viewBox="0 0 50 50" id="purple">
        <rect width="50" height="50" rx="15" fill="#7752BE" />
        <path
            d="M30.1161 26.5982C30.3006 26.7768 30.3423 26.9821 30.2411 27.2143C30.1399 27.4524 29.9643 27.5714 29.7143 27.5714H26.3036L28.0982 31.8214C28.1577 31.9702 28.1577 32.1161 28.0982 32.2589C28.0387 32.4018 27.9375 32.506 27.7946 32.5714L26.2143 33.2411C26.0655 33.3006 25.9196 33.3006 25.7768 33.2411C25.6339 33.1815 25.5298 33.0804 25.4643 32.9375L23.7589 28.9018L20.9732 31.6875C20.8601 31.8006 20.7262 31.8571 20.5714 31.8571C20.5 31.8571 20.4286 31.8423 20.3571 31.8125C20.119 31.7113 20 31.5357 20 31.2857V17.8571C20 17.6071 20.119 17.4315 20.3571 17.3304C20.4286 17.3006 20.5 17.2857 20.5714 17.2857C20.7321 17.2857 20.8661 17.3423 20.9732 17.4554L30.1161 26.5982Z"
            fill="white" />
    </symbol>
    <symbol viewBox="0 0 50 50" id="orange">
        <rect width="50" height="50" rx="15" fill="#FAB005" />
        <path
            d="M25.4821 23.6429V22.5893C25.4821 22.3393 25.3929 22.125 25.2143 21.9464C25.0357 21.7679 24.8214 21.6786 24.5714 21.6786C24.3214 21.6786 24.1071 21.7679 23.9286 21.9464C23.75 22.125 23.6607 22.3393 23.6607 22.5893V28.0536C23.6607 29.0952 23.2857 29.9851 22.5357 30.7232C21.7857 31.4613 20.8839 31.8304 19.8304 31.8304C18.7708 31.8304 17.8661 31.4583 17.1161 30.7143C16.372 29.9643 16 29.0595 16 28V25.625H18.9286V27.9643C18.9286 28.2202 19.0179 28.4375 19.1964 28.6161C19.375 28.7887 19.5893 28.875 19.8393 28.875C20.0893 28.875 20.3036 28.7887 20.4821 28.6161C20.6607 28.4375 20.75 28.2202 20.75 27.9643V22.4286C20.75 21.4107 21.125 20.5417 21.875 19.8214C22.631 19.1012 23.5298 18.7411 24.5714 18.7411C25.619 18.7411 26.5179 19.1042 27.2679 19.8304C28.0179 20.5565 28.3929 21.4315 28.3929 22.4554V23.6696L26.6518 24.1875L25.4821 23.6429ZM30.2143 25.625H33.1429V28C33.1429 29.0595 32.7679 29.9643 32.0179 30.7143C31.2738 31.4583 30.372 31.8304 29.3125 31.8304C28.2589 31.8304 27.3571 31.4613 26.6071 30.7232C25.8571 29.9792 25.4821 29.0833 25.4821 28.0357V25.6429L26.6518 26.1875L28.3929 25.6696V28.0804C28.3929 28.3304 28.4821 28.5446 28.6607 28.7232C28.8393 28.8958 29.0536 28.9821 29.3036 28.9821C29.5536 28.9821 29.7679 28.8958 29.9464 28.7232C30.125 28.5446 30.2143 28.3304 30.2143 28.0804V25.625Z"
            fill="white" />
    </symbol>
    <symbol viewBox="0 0 50 50" id="red">
        <rect width="50" height="50" rx="15" fill="#F03E3D" />
        <path
            d="M25.3929 31.9821C25.2857 32.0893 25.1548 32.1429 25 32.1429C24.8452 32.1429 24.7143 32.0893 24.6071 31.9821L19.0357 26.6071C18.9762 26.5595 18.8929 26.4821 18.7857 26.375C18.6845 26.2679 18.5208 26.0744 18.2946 25.7946C18.0685 25.5089 17.8661 25.2173 17.6875 24.9196C17.5089 24.622 17.3482 24.2619 17.2054 23.8393C17.0685 23.4167 17 23.006 17 22.6071C17 21.2976 17.378 20.2738 18.1339 19.5357C18.8899 18.7976 19.9345 18.4286 21.2679 18.4286C21.6369 18.4286 22.0119 18.494 22.3929 18.625C22.7798 18.75 23.1369 18.9226 23.4643 19.1429C23.7976 19.3571 24.0833 19.5595 24.3214 19.75C24.5595 19.9405 24.7857 20.1429 25 20.3571C25.2143 20.1429 25.4405 19.9405 25.6786 19.75C25.9167 19.5595 26.1994 19.3571 26.5268 19.1429C26.8601 18.9226 27.2173 18.75 27.5982 18.625C27.9851 18.494 28.3631 18.4286 28.7321 18.4286C30.0655 18.4286 31.1101 18.7976 31.8661 19.5357C32.622 20.2738 33 21.2976 33 22.6071C33 23.9226 32.3185 25.2619 30.9554 26.625L25.3929 31.9821Z"
            fill="white" />
    </symbol>
    <symbol viewBox="0 0 50 50" id="blue">
        <rect width="50" height="50" rx="15" fill="#4DADF7" />
        <path
            d="M30.5714 18.4286C30.5714 19.9821 30.253 21.3571 29.6161 22.5536C28.9851 23.744 28.1935 24.6548 27.2411 25.2857C28.1935 25.9167 28.9851 26.8304 29.6161 28.0268C30.253 29.2173 30.5714 30.5893 30.5714 32.1429H31.4286C31.5119 32.1429 31.5804 32.1696 31.6339 32.2232C31.6875 32.2768 31.7143 32.3452 31.7143 32.4286V33C31.7143 33.0833 31.6875 33.1518 31.6339 33.2054C31.5804 33.2589 31.5119 33.2857 31.4286 33.2857H18.2857C18.2024 33.2857 18.1339 33.2589 18.0804 33.2054C18.0268 33.1518 18 33.0833 18 33V32.4286C18 32.3452 18.0268 32.2768 18.0804 32.2232C18.1339 32.1696 18.2024 32.1429 18.2857 32.1429H19.1429C19.1429 30.5893 19.4583 29.2173 20.0893 28.0268C20.7262 26.8304 21.5208 25.9167 22.4732 25.2857C21.5208 24.6548 20.7262 23.744 20.0893 22.5536C19.4583 21.3571 19.1429 19.9821 19.1429 18.4286H18.2857C18.2024 18.4286 18.1339 18.4018 18.0804 18.3482C18.0268 18.2946 18 18.2262 18 18.1429V17.5714C18 17.4881 18.0268 17.4196 18.0804 17.3661C18.1339 17.3125 18.2024 17.2857 18.2857 17.2857H31.4286C31.5119 17.2857 31.5804 17.3125 31.6339 17.3661C31.6875 17.4196 31.7143 17.4881 31.7143 17.5714V18.1429C31.7143 18.2262 31.6875 18.2946 31.6339 18.3482C31.5804 18.4018 31.5119 18.4286 31.4286 18.4286H30.5714ZM29.4286 18.4286H20.2857C20.2857 19.6548 20.5387 20.7976 21.0446 21.8571H28.6696C29.1756 20.7976 29.4286 19.6548 29.4286 18.4286ZM28.9196 29.2857C28.5982 28.4464 28.1637 27.7292 27.6161 27.1339C27.0744 26.5327 26.497 26.1071 25.8839 25.8571H23.8304C23.2173 26.1071 22.6369 26.5327 22.0893 27.1339C21.5476 27.7292 21.1161 28.4464 20.7946 29.2857H28.9196Z"
            fill="white" />
    </symbol>
    <symbol viewBox="0 0 35 36" id="marker">
        <rect y="0.5" width="35" height="35" rx="10" fill="#FF9900" />
        <path
            d="M26.8767 12.7393C26.5423 12.4202 26.0001 12.4202 25.6656 12.7393L19.3494 18.7652C17.142 20.8712 13.6694 20.8712 11.4619 18.7653C11.1275 18.4462 10.5853 18.4462 10.2508 18.7653C9.91639 19.0843 9.91639 19.6016 10.2508 19.9207L14.8001 24.2608C15.1345 24.5798 15.6771 24.5796 16.0112 24.2608L26.8767 13.8947C27.2112 13.5757 27.2112 13.0584 26.8767 12.7393Z"
            fill="white" />
    </symbol>
</svg>