<svg xmlns="http://www.w3.org/2000/svg" xmlns:xlink="http://www.w3.org/1999/xlink">
    <symbol viewBox="0 0 30 30" id="ui_ux">
        <path
            d="M15 0C6.72938 0 0 6.71218 0 14.9617C0 22.968 6.285 29.525 14.3081 29.8897L16.7231 30L11.6175 24.9074C11.0869 24.3782 10.7944 23.6731 10.7944 22.9231C10.7944 22.1732 11.0869 21.47 11.6175 20.9388C12.6788 19.8803 14.5331 19.8803 15.5944 20.9388L22.5675 27.8941L23.205 27.4771C27.4613 24.698 30 20.0187 30 14.9617C30 6.71218 23.2706 0 15 0ZM22.8 25.4816L16.9219 19.6185C15.1537 17.853 12.0619 17.853 10.2937 19.6185C9.40875 20.5012 8.92125 21.6757 8.92125 22.925C8.92125 24.1743 9.40875 25.3488 10.2937 26.2315L11.6831 27.6174C6.00937 26.153 1.875 21.0342 1.875 14.9617C1.875 7.74266 7.7625 1.87021 15 1.87021C22.2375 1.87021 28.125 7.74266 28.125 14.9617C28.125 19.1322 26.1487 23.0129 22.8 25.4816ZM20.625 11.2212C18.5569 11.2212 16.875 12.8988 16.875 14.9617C16.875 17.0245 18.5569 18.7021 20.625 18.7021C22.6931 18.7021 24.375 17.0245 24.375 14.9617C24.375 12.8988 22.6931 11.2212 20.625 11.2212ZM20.625 16.8319C19.5919 16.8319 18.75 15.9921 18.75 14.9617C18.75 13.9312 19.5919 13.0915 20.625 13.0915C21.6581 13.0915 22.5 13.9312 22.5 14.9617C22.5 15.9921 21.6581 16.8319 20.625 16.8319ZM15 10.2861C13.4475 10.2861 12.1875 9.03123 12.1875 7.48083C12.1875 5.93043 13.4475 4.67552 15 4.67552C16.5544 4.67552 17.8125 5.93043 17.8125 7.48083C17.8125 9.03123 16.5544 10.2861 15 10.2861ZM9.84375 10.0823C9.84375 11.1146 9.00375 11.9525 7.96875 11.9525C6.93375 11.9525 6.09375 11.1146 6.09375 10.0823C6.09375 9.04993 6.93375 8.21208 7.96875 8.21208C9.00375 8.21208 9.84375 9.04806 9.84375 10.0823Z"
            fill="#181818" />
    </symbol>
    <symbol viewBox="0 0 31 30" id="design">
        <g clip-path="url(#clip0_203_129)">
            <path
                d="M30.0797 17.6598L14.8613 2.517L14.6314 2.74268C13.485 1.62105 11.968 1.0017 10.3531 1C10.3531 1 10.3531 1 10.3514 1C8.72455 1 7.19208 1.62784 6.04058 2.76644C4.88736 3.90504 4.2524 5.41864 4.2524 7.03236C4.2524 8.62911 4.8805 10.1291 6.01484 11.2627L2.22569 15.011C1.70572 15.5269 1.41913 16.209 1.41913 16.9336C1.41913 17.6615 1.704 18.342 2.22055 18.851L10.4767 27.0961C10.995 27.6086 11.6848 27.8919 12.4176 27.8919C13.1538 27.8919 13.8437 27.6069 14.3619 27.0927L23.9 17.6615L30.0797 17.6598ZM5.9685 7.03066C5.9685 5.8734 6.42498 4.78571 7.25386 3.96612C8.08273 3.14823 9.18104 2.69687 10.3514 2.69687C10.3531 2.69687 10.3531 2.69687 10.3531 2.69687C11.5098 2.69687 12.5944 3.14145 13.4181 3.94237L7.22983 10.063C6.41812 9.24677 5.9685 8.17435 5.9685 7.03066ZM13.1452 25.8947C12.9513 26.0865 12.6905 26.1951 12.4159 26.1951C12.1413 26.1951 11.8822 26.0899 11.6917 25.8998L5.45196 19.6655H19.445L13.1452 25.8947ZM21.1611 17.9687H3.7513L3.43726 17.6531C3.24162 17.4613 3.13523 17.2068 3.13523 16.9353C3.13523 16.6621 3.24334 16.4059 3.43897 16.2107L14.8579 4.91976L25.9576 15.9647L23.1878 15.9664L21.1611 17.9687ZM28.3413 21.2928L27.6428 20.2679L26.9255 21.2826C26.378 22.0581 24.5864 24.695 24.5864 26.0305C24.5864 27.668 25.9336 29 27.5896 29C29.2456 29 30.5928 27.6663 30.5928 26.0288C30.5928 24.7018 28.8698 22.0683 28.3413 21.2928ZM27.5896 27.3014C26.8809 27.3014 26.3025 26.7296 26.3025 26.0288C26.3025 25.6215 26.9015 24.4677 27.6171 23.3291C28.3035 24.466 28.8767 25.6181 28.8767 26.0288C28.8767 26.7296 28.2984 27.3014 27.5896 27.3014Z"
                fill="#181818" />
        </g>
        <defs>
            <clipPath id="clip0_203_129">
                <rect width="30.1796" height="30" fill="white" transform="translate(0.413147)" />
            </clipPath>
        </defs>
    </symbol>
    <symbol viewBox="0 0 30 30" id="dev">
        <path
            d="M28.125 3.52941V0H3.75V3.52941H2.7825C1.24875 3.52941 0 4.72059 0 6.18529V11.4618C0 12.9265 1.24875 14.1176 2.7825 14.1176H14.0775C14.5931 14.1176 15.015 14.5147 15.015 15V17.6471H13.125V30H18.75V17.6471H16.89V15C16.89 13.5406 15.6281 12.3529 14.0775 12.3529H2.7825C2.28375 12.3529 1.875 11.9524 1.875 11.4618V6.18529C1.875 5.69471 2.28375 5.29412 2.7825 5.29412H3.75V10.5882H28.125V5.29412H30V3.52941H28.125ZM16.875 28.2353H15V19.4118H16.875V28.2353ZM26.25 8.82353H5.625V1.76471H26.25V8.82353Z"
            fill="#181818" />
    </symbol>
    <symbol viewBox="0 0 68 54" id="badge">
        <circle cx="24" cy="30" r="24" fill="#FD8D7B" />
        <path
            d="M54.8421 4C58.6211 4 61.6842 6.91 61.6842 10.5C61.6842 14.09 58.6211 17 54.8421 17C51.0632 17 48 14.09 48 10.5C48 6.91 51.0632 4 54.8421 4ZM65.8947 0C67.0526 0 68 0.9 68 2C68 3.1 67.0526 4 65.8947 4C64.7368 4 63.7895 3.1 63.7895 2C63.7895 0.9 64.7368 0 65.8947 0Z"
            fill="#FD8D7B" />
        <path
            d="M20.9609 39V22.1953H24.4414C25.6836 22.1953 26.5938 22.5547 27.1719 23.2734C27.75 23.9922 28.0391 24.9961 28.0391 26.2852V28.1016C28.0391 29.4375 27.7188 30.4375 27.0781 31.1016C26.4453 31.7578 25.4688 32.0859 24.1484 32.0859H22.0625V39H20.9609ZM22.0625 31.0781H24.1484C25.125 31.0781 25.832 30.8477 26.2695 30.3867C26.7148 29.9258 26.9375 29.1875 26.9375 28.1719V26.2031C26.9375 25.2344 26.7461 24.4922 26.3633 23.9766C25.9805 23.4609 25.3398 23.2031 24.4414 23.2031H22.0625V31.0781Z"
            fill="white" />
    </symbol>
    <symbol viewBox="0 0 101 30" id="tooltip">
        <path
            d="M19 0H86C94.28 0 101 6.72 101 15C101 23.28 94.28 30 86 30H19C10.72 30 4 23.28 4 15C4 6.72 10.72 0 19 0ZM0 15L6 8V22L0 15Z"
            fill="#3B4040" />
        <path
            d="M31.0559 8.8V20H31.7919V15.392H33.1839C34.9599 15.392 35.7759 14.512 35.7759 12.736V11.52C35.7759 9.888 35.1039 8.8 33.3759 8.8H31.0559ZM31.7919 14.72V9.472H33.3759C34.6239 9.472 35.0399 10.256 35.0399 11.472V12.784C35.0399 14.144 34.4799 14.72 33.1839 14.72H31.7919ZM37.5073 17.264C37.5073 18.896 38.2593 20.096 39.9553 20.096C41.6833 20.096 42.4353 18.896 42.4353 17.264V11.536C42.4353 9.904 41.6833 8.704 39.9553 8.704C38.2593 8.704 37.5073 9.904 37.5073 11.536V17.264ZM38.2433 11.488C38.2433 10.272 38.7233 9.376 39.9553 9.376C41.2033 9.376 41.6993 10.272 41.6993 11.488V17.312C41.6993 18.528 41.2033 19.424 39.9553 19.424C38.7233 19.424 38.2433 18.528 38.2433 17.312V11.488ZM44.2891 8.8V20H45.0251V15.392H46.4171C48.1931 15.392 49.0091 14.512 49.0091 12.736V11.52C49.0091 9.888 48.3371 8.8 46.6091 8.8H44.2891ZM45.0251 14.72V9.472H46.6091C47.8571 9.472 48.2731 10.256 48.2731 11.472V12.784C48.2731 14.144 47.7131 14.72 46.4171 14.72H45.0251ZM51.4924 8.8H50.7564V17.264C50.7564 18.864 51.4444 20.096 53.1564 20.096C54.8684 20.096 55.5404 18.864 55.5404 17.264V8.8H54.8524V17.296C54.8524 18.496 54.4044 19.424 53.1724 19.424C51.9404 19.424 51.4924 18.496 51.4924 17.296V8.8ZM61.7001 20V19.328H58.1801V8.8H57.4441V20H61.7001ZM68.0034 17.52L68.5634 20H69.2994L66.8034 8.784H65.7314L63.2834 20H63.9554L64.5154 17.52H68.0034ZM66.2434 9.632L67.8914 16.88H64.6274L66.2434 9.632ZM71.0522 8.8V20H71.7882V14.992H72.9562C74.2362 14.992 75.0522 15.408 75.0522 16.896V18.656C75.0522 19.264 75.1002 19.664 75.2922 20H76.0602C75.8202 19.632 75.7882 19.12 75.7882 18.656V16.912C75.7882 15.696 75.3242 14.88 74.1722 14.624C75.2762 14.368 75.7882 13.616 75.7882 12.304V11.328C75.7882 9.744 75.1002 8.8 73.3882 8.8H71.0522ZM71.7882 14.32V9.472H73.3722C74.5882 9.472 75.0522 10.192 75.0522 11.392V12.448C75.0522 13.952 74.2842 14.32 72.9722 14.32H71.7882Z"
            fill="white" />
    </svg>
</svg>